<svg width="16" height="15" viewBox="0 0 16 15" fill="none" xmlns="http://www.w3.org/2000/svg">
<path d="M11.608 0H3.87459C1.73809 0 0 1.7386 0 3.87573V10.9528C0 13.0899 1.73809 14.8285 3.87459 14.8285H11.608C13.7445 14.8285 15.4826 13.0899 15.4826 10.9528V3.87573C15.4826 1.7386 13.7445 0 11.608 0ZM1.36683 3.87573C1.36683 2.49273 2.492 1.36723 3.87459 1.36723H11.608C12.9906 1.36723 14.1158 2.49273 14.1158 3.87573V10.9528C14.1158 12.3358 12.9906 13.4613 11.608 13.4613H3.87459C2.492 13.4613 1.36683 12.3358 1.36683 10.9528V3.87573Z" fill="white"/>
<path d="M7.74124 11.0185C9.728 11.0185 11.3453 9.4016 11.3453 7.41337C11.3453 5.42514 9.72888 3.80829 7.74124 3.80829C5.75359 3.80829 4.13721 5.42514 4.13721 7.41337C4.13721 9.4016 5.75359 11.0185 7.74124 11.0185ZM7.74124 5.1764C8.97498 5.1764 9.97843 6.18015 9.97843 7.41425C9.97843 8.64835 8.97498 9.6521 7.74124 9.6521C6.5075 9.6521 5.50404 8.64835 5.50404 7.41425C5.50404 6.18015 6.5075 5.1764 7.74124 5.1764Z" fill="white"/>
<path d="M11.6789 4.39075C12.2139 4.39075 12.65 3.95544 12.65 3.4194C12.65 2.88337 12.2148 2.44806 11.6789 2.44806C11.1431 2.44806 10.7079 2.88337 10.7079 3.4194C10.7079 3.95544 11.1431 4.39075 11.6789 4.39075Z" fill="white"/>
</svg>
